<svg class="isuzuCar" width="1011" height="368" viewBox="0 0 1011 368" fill="none" xmlns="http://www.w3.org/2000/svg">
<rect x="119" y="48" width="488" height="197" fill="#3F89E4" stroke="white" stroke-width="2"/>
<rect x="104" y="22" width="492" height="211" rx="33" fill="#3F89E4" stroke="white" stroke-width="2"/>
<path d="M161.7 22L165.588 15H266.412L270.3 22H161.7Z" fill="#3F89E4" stroke="white" stroke-width="2"/>
<path fill-rule="evenodd" clip-rule="evenodd" d="M84 203C84 202.448 84.4477 202 85 202H602C602.552 202 603 202.448 603 203V208C603 208.552 602.552 209 602 209H547C546.448 209 546 209.448 546 210V239C546 239.552 545.552 240 545 240H540C539.448 240 539 239.552 539 239V210C539 209.448 538.552 209 538 209H127C126.448 209 126 209.448 126 210V239C126 239.552 125.552 240 125 240H120C119.448 240 119 239.552 119 239V210C119 209.448 118.552 209 118 209H85C84.4477 209 84 208.552 84 208V203Z" fill="#3F89E4"/>
<path d="M602 201H85V203H602V201ZM604 208V203H602V208H604ZM547 210H602V208H547V210ZM545 210V239H547V210H545ZM545 239H540V241H545V239ZM540 239V210H538V239H540ZM127 210H538V208H127V210ZM127 239V210H125V239H127ZM120 241H125V239H120V241ZM118 210V239H120V210H118ZM85 210H118V208H85V210ZM83 203V208H85V203H83ZM85 208H83C83 209.105 83.8954 210 85 210V208ZM120 210C120 208.895 119.105 208 118 208V210H120ZM120 239H118C118 240.105 118.895 241 120 241V239ZM125 239V241C126.105 241 127 240.105 127 239H125ZM127 208C125.895 208 125 208.895 125 210H127V210V208ZM540 210C540 208.895 539.105 208 538 208V210V210H540ZM540 239H538C538 240.105 538.895 241 540 241V239ZM545 239V241C546.105 241 547 240.105 547 239H545ZM547 208C545.895 208 545 208.895 545 210H547V208ZM602 208V210C603.105 210 604 209.105 604 208H602ZM85 201C83.8954 201 83 201.895 83 203H85H85V201ZM602 203V203H604C604 201.895 603.105 201 602 201V203Z" fill="white"/>
<path d="M70 232.5L13.5 277.5L82 289.5L123 271.5L99.5 240H602.5V41.5H612.5V27.5H588.5L59 128.5L70 232.5Z" fill="#3F89E4"/>
<path d="M64 237L59.5 134.5L84.5 173.429V182L87 244L64 237Z" fill="#3F89E4"/>
<path d="M153 265.442L110.608 290.325L138.434 309.934C142.622 314.171 145.704 322.281 124.521 320.828C103.337 319.376 40.5953 314.171 11.8721 311.75C7.83293 310.418 0.0238183 306.23 1.10094 300.129C2.17806 294.029 2.74652 285.241 2.89611 281.609C2.74651 279.673 5.22987 276.017 16.3601 276.889C23.5035 277.448 41.8869 278.677 58.9961 280.085L105.978 259L153 265.442Z" fill="#3F89E4"/>
<path d="M564 217.5H211.5C157.167 187.167 46 125.2 36 120C26 114.8 29.1667 109.167 32 107L145 29L589 23.5V27V200.5L564 217.5Z" fill="#3F89E4"/>
<path d="M104 195.5C104 199.642 100.642 203 96.5 203C92.3579 203 89 199.642 89 195.5C89 191.358 92.3579 188 96.5 188C100.642 188 104 191.358 104 195.5Z" fill="#3F89E4"/>
<path d="M77 229H68.5V210L67.5 191H76L77 210V229Z" fill="#3F89E4"/>
<path d="M87 244L64 237L59.5 134.5L84.5 173.429M87 244L84.5 182V173.429M87 244L99 257M84.5 173.429L94.5 189M110.608 290.325L153 265.442L105.978 259L58.9961 280.085M110.608 290.325L138.434 309.934C142.622 314.171 145.704 322.281 124.521 320.828C103.337 319.376 40.5953 314.171 11.8721 311.75C7.83293 310.418 0.0238182 306.23 1.10094 300.129C2.17806 294.029 2.74652 285.241 2.89611 281.609C2.74651 279.673 5.22987 276.017 16.3601 276.889C23.5035 277.448 41.8869 278.677 58.9961 280.085M110.608 290.325C107.167 289.114 98.9392 286.185 93.5536 284.151C90.2781 282.915 75.2092 281.42 58.9961 280.085M589 27V200.5L564 217.5H211.5C157.167 187.167 46 125.2 36 120C26 114.8 29.1667 109.167 32 107L145 29L589 23.5V27ZM589 27H612M96 202.5L99.5 240M247 235.5L101.5 200.5L104 194L200 211M14 276.5L63.5 237.5M68.5 210L67.5 191H76L77 210M68.5 210V229H77V210M68.5 210H77M104 195.5C104 199.642 100.642 203 96.5 203C92.3579 203 89 199.642 89 195.5C89 191.358 92.3579 188 96.5 188C100.642 188 104 191.358 104 195.5Z" stroke="white" stroke-width="2"/>
<path d="M94.5 189L84.5 173.429M84.5 173.429L59.5 134.5L64 237L87 244L84.5 182V173.429Z" stroke="white" stroke-width="2"/>
<path d="M110.608 290.325L153 265.442L105.978 259L58.9961 280.085M110.608 290.325L138.434 309.934C142.622 314.171 145.704 322.281 124.521 320.828C103.337 319.376 40.5953 314.171 11.8721 311.75C7.83293 310.418 0.0238182 306.23 1.10094 300.129C2.17806 294.029 2.74652 285.241 2.89611 281.609C2.74651 279.673 5.22987 276.017 16.3601 276.889C23.5035 277.448 41.8869 278.677 58.9961 280.085M110.608 290.325C107.167 289.114 98.9392 286.185 93.5536 284.151C90.2781 282.915 75.2092 281.42 58.9961 280.085" stroke="white" stroke-width="2"/>
<path d="M589 27V200.5L564 217.5H211.5C157.167 187.167 46.0002 125.2 36.0002 120C26.0002 114.8 29.1669 109.167 32.0002 107L145 29L589 23.5V27ZM589 27H612" stroke="white" stroke-width="2"/>
<circle cx="96.5" cy="195.5" r="6.5" stroke="white" stroke-width="2"/>
<path d="M96 202.5L99.5 240" stroke="white" stroke-width="2"/>
<path d="M247 235.5L101.5 200.5L104 194L200 211" stroke="white" stroke-width="2"/>
<path d="M99 257L87 244" stroke="white" stroke-width="2"/>
<path d="M14 276.5L63.5 237.5" stroke="white" stroke-width="2"/>
<path d="M68.5 210L67.5 191H76L77 210M68.5 210V229H77V210M68.5 210H77" stroke="white" stroke-width="2"/>
<path d="M172 268.471L253 306L348 296.941H627V240H99V256.824L172 268.471Z" fill="#3F89E4" stroke="white" stroke-width="2"/>
<path d="M828 65.5L826 118C827.167 118 830.9 117.7 836.5 116.5C842.1 115.3 843.5 109.667 843.5 107C843.667 97.5 843.9 77.2 843.5 72C843.1 66.8 837.667 65.5 835 65.5H828Z" fill="#3F89E4" stroke="#3F89E4" stroke-width="2"/>
<path d="M812 95L814 69.5C816.667 68.6667 823 67 827 67M826 116.5L821 118M830.5 118V144.5M835 116.5L834 154.5" stroke="#3F89E4" stroke-width="2"/>
<path d="M835 292.5H801V279H709H603.5L603 236V41.5H612.5V22.5C612.5 16.9 623.5 7.5 629 3.5L671.5 1C682.5 1 709.4 1.5 729 3.5C753.5 6 763.5 16.5 770 25C776.5 33.5 799.5 72 807 85.5C814.5 99 837 159 837 170.5V247.5H845C849.4 247.5 851.5 252.5 852 255V281C852 289 846 292 843 292.5H835Z" fill="#3F89E4"/>
<path d="M801 278V279M603 236V41.5H612.5C612.5 37.5 612.5 28.1 612.5 22.5C612.5 16.9 623.5 7.5 629 3.5L671.5 1C682.5 1 709.4 1.5 729 3.5C753.5 6 763.5 16.5 770 25C776.5 33.5 799.5 72 807 85.5C814.5 99 837 159 837 170.5C837 179.7 837 225.667 837 247.5C837.833 247.5 840.6 247.5 845 247.5C849.4 247.5 851.5 252.5 852 255C852 260.333 852 273 852 281C852 289 846 292 843 292.5H835H801V279M603 236L613 226V41.5M603 236L603.5 279H709H801" stroke="#3F89E4" stroke-width="2"/>
<path d="M639.324 234.445L632.479 232.259L604.266 270.335L602.649 318.953L609.581 320.068L614.724 276.337L639.324 234.445Z" fill="#3F89E4" stroke="#3F89E4" stroke-width="2"/>
<circle cx="681" cy="305" r="59" fill="#3F89E4" stroke="#3F89E4" stroke-width="2"/>
<circle cx="282" cy="305" r="59" fill="#3F89E4" stroke="#3F89E4" stroke-width="2"/>
<circle cx="567.5" cy="280.5" r="25.5" fill="#3F89E4" stroke="#3F89E4" stroke-width="2"/>
<path d="M814 69.5L812 95L826.5 155.5L834 154.5L835 116.5L829 67H827C823 67 816.667 68.6667 814 69.5Z" fill="#3F89E4"/>
<path d="M826 116.5L821 118M830.5 118V144.5M812 95L814 69.5C816.667 68.6667 823 67 827 67H829L835 116.5L834 154.5L826.5 155.5L812 95Z" stroke="#3F89E4" stroke-width="2"/>
<path d="M836.967 287.6L833.9 285.3C832.406 284.179 833.127 281.804 834.992 281.703L843.33 281.252C845.087 281.157 846.102 283.215 844.956 284.551L842.599 287.302C842.219 287.745 841.664 288 841.08 288H838.167C837.734 288 837.313 287.86 836.967 287.6Z" stroke="white" stroke-width="2"/>
<path d="M828 65.5L826 118C827.167 118 830.9 117.7 836.5 116.5C842.1 115.3 843.5 109.667 843.5 107C843.667 97.5 843.9 77.2 843.5 72C843.1 66.8 837.667 65.5 835 65.5H828Z" stroke="white" stroke-width="2"/>
<path d="M828 65.5L826 118C827.167 118 830.9 117.7 836.5 116.5C842.1 115.3 843.5 109.667 843.5 107C843.667 97.5 843.9 77.2 843.5 72C843.1 66.8 837.667 65.5 835 65.5H828Z" stroke="white" stroke-width="2"/>
<path d="M812 95L814 69.5C816.667 68.6667 823 67 827 67M826 116.5L821 118M830.5 118V144.5M835 116.5L834 154.5" stroke="white" stroke-width="2"/>
<path d="M812 95L814 69.5C816.667 68.6667 823 67 827 67M826 116.5L821 118M830.5 118V144.5M835 116.5L834 154.5" stroke="white" stroke-width="2"/>
<path d="M795.5 260.5C790.7 260.5 789.5 262.833 789.5 264C788.7 266.8 791.167 268.833 792.5 269.5H801.5C806 269.5 805 266.5 805 263C805 259.5 801.5 260.5 795.5 260.5Z" stroke="white" stroke-width="2"/>
<path d="M630.5 19V207C638.667 207 659.3 207.2 676.5 208C698 209 705.5 215 718.5 225C728.9 233 740.5 264.667 745 279.5H809V123.5C805.333 115.333 796.7 96.3 791.5 85.5C785 72 769.5 48 759.5 33.5C751.5 21.9 736.833 19 730.5 19H630.5Z" stroke="white" stroke-width="2"/>
<path d="M745 279.5H734.5" stroke="white" stroke-width="2"/>
<path d="M644.5 35.9997L646 101.5C646.247 112.3 652.436 114.666 655.5 114.5H691.5C702.3 114.5 710 120.833 712.5 124C718.667 130 733.2 144 742 152C750.8 160 757.333 161.333 759.5 161H777C786.6 161 790.333 152.333 791 148V120.5C791 109 786 103.5 782.5 90.5C779 77.5 760 47.4997 753.5 35.9997C748.3 26.7997 734 25.8331 727.5 26.4997H661C646.6 26.4997 644 32.8331 644.5 35.9997Z" stroke="white" stroke-width="2"/>
<path d="M674.5 169.5C674.5 165.1 671.5 163 670 162.5C668 162.5 662.4 162.5 656 162.5C649.6 162.5 647.667 167.167 647.5 169.5C647.5 175.1 653.167 176.833 656 177C659.667 177 667.6 177 670 177C673 177 674.5 175 674.5 169.5ZM674.5 169.5H648" stroke="white" stroke-width="2"/>
<circle cx="645.5" cy="182.5" r="3.5" stroke="white" stroke-width="2"/>
<path d="M647.5 208.5V218C660.667 217.333 689.4 217.2 699 222C711 228 728 237.5 735.5 254" stroke="white" stroke-width="2"/>
<path d="M801 280V292.5H835H843C846 292 852 289 852 281C852 273 852 260.333 852 255C851.5 252.5 849.4 247.5 845 247.5C840.6 247.5 837.833 247.5 837 247.5C837 225.667 837 179.7 837 170.5C837 159 814.5 99 807 85.5C799.5 72 776.5 33.5 770 25C763.5 16.5 753.5 6 729 3.5C709.4 1.5 682.5 1 671.5 1L629 3.5C623.5 7.5 612.5 16.9 612.5 22.5C612.5 28.1 612.5 37.5 612.5 41.5H603V239L613 229V41.5" stroke="white" stroke-width="2"/>
<path d="M791.5 127.5H814.5L817 124.5L826 133.5" stroke="white" stroke-width="2"/>
<path d="M817 124.5C811.833 113 800.7 88.5 797.5 82.5C793.5 75 780 50.5 776 45C772 39.5 763 26 761.5 25" stroke="white" stroke-width="2"/>
<path d="M751 25H769" stroke="white" stroke-width="2"/>
<path d="M752 10H621.5M625.5 6H741.5" stroke="white" stroke-width="2"/>
<path d="M732 247.5H837" stroke="white" stroke-width="2"/>
<path d="M741 267H789" stroke="white" stroke-width="2"/>
<path d="M805 267H808.5" stroke="white" stroke-width="2"/>
<path d="M836 244H824.5L815.5 229.5V197C818.833 197.333 826.4 198.4 830 200C833.6 201.6 836.167 203 837 203.5V221.5C833.333 220.167 823.2 217.6 816 218" stroke="white" stroke-width="2"/>
<path d="M814.5 201.5H617.5V13.5" stroke="white" stroke-width="2"/>
<path d="M714.5 127H618.5" stroke="white" stroke-width="2"/>
<path d="M809.5 267H819.5C824.333 264.667 834 257.6 834 248" stroke="white" stroke-width="2"/>
<path d="M832.5 255.5L851 254.5" stroke="white" stroke-width="2"/>
<path d="M818 268V282.5L834 292.5" stroke="white" stroke-width="2"/>
<path d="M639.324 234.445L632.479 232.259L604.266 270.335L602.649 318.953L609.581 320.068L614.724 276.337L639.324 234.445Z" stroke="white" stroke-width="2"/>
<path d="M639.324 234.445L632.479 232.259L604.266 270.335L602.649 318.953L609.581 320.068L614.724 276.337L639.324 234.445Z" stroke="white" stroke-width="2"/>
<circle cx="681" cy="305" r="59" stroke="white" stroke-width="2"/>
<circle cx="681" cy="305" r="59" stroke="white" stroke-width="2"/>
<circle cx="681" cy="305" r="45" stroke="white" stroke-width="2"/>
<path d="M675.105 329.12C678.985 328.795 682.886 328.828 686.76 329.219C687.571 329.56 686.118 333.967 685.483 334.628C682.621 335.112 679.7 335.124 676.834 334.663C676.184 334.016 674.576 329.646 675.105 329.12" stroke="white" stroke-width="2"/>
<path d="M658.459 314.662C661.271 317.68 663.792 320.953 665.992 324.437C666.224 325.331 661.611 326.978 660.668 326.858C658.402 324.787 656.488 322.364 655 319.684C655.09 318.753 657.688 314.58 658.459 314.662" stroke="white" stroke-width="2"/>
<path d="M659 292.611C658.359 296.619 657.352 300.557 655.993 304.376C655.442 305.058 651.413 302.534 651 301.712C651.212 298.706 651.93 295.76 653.123 293C653.884 292.457 658.601 291.929 659 292.611" stroke="white" stroke-width="2"/>
<path d="M676.98 279.948C673.499 282.053 669.854 283.801 666.091 285.169C665.244 285.169 664.742 279.965 665.137 278.962C667.574 277.178 670.25 275.84 673.064 275C674.011 275.361 677.282 279.13 676.98 279.948" stroke="white" stroke-width="2"/>
<path d="M697.826 286.187C694.069 284.565 690.468 282.609 687.065 280.342C686.479 279.604 690.011 276.29 690.924 276.017C693.814 276.966 696.518 278.404 698.917 280.268C699.236 281.139 698.59 285.943 697.826 286.187" stroke="white" stroke-width="2"/>
<path d="M705.897 306.462C704.895 302.615 704.26 298.679 704 294.709C704.198 293.888 708.792 294.543 709.528 295.12C710.466 297.907 710.963 300.828 711 303.774C710.547 304.567 706.513 306.944 705.897 306.462" stroke="white" stroke-width="2"/>
<path d="M695 325.429C697.392 322.299 700.045 319.383 702.929 316.714C703.734 316.384 706 320.473 706 321.361C704.442 323.833 702.502 326.034 700.253 327.878C699.314 327.964 695.028 326.195 695 325.429" stroke="white" stroke-width="2"/>
<path d="M681.908 313.108C680.24 313.107 678.611 312.603 677.224 311.661C675.838 310.719 674.758 309.38 674.12 307.814C673.481 306.247 673.314 304.524 673.638 302.861C673.962 301.197 674.763 299.669 675.941 298.469C677.119 297.269 678.62 296.45 680.255 296.117C681.89 295.784 683.585 295.951 685.126 296.597C686.668 297.243 687.986 298.34 688.915 299.748C689.845 301.155 690.343 302.811 690.347 304.507C690.352 305.636 690.136 306.755 689.714 307.8C689.292 308.844 688.671 309.793 687.886 310.593C687.102 311.392 686.17 312.026 685.144 312.457C684.118 312.889 683.018 313.11 681.908 313.108" stroke="white" stroke-width="2"/>
<circle cx="282" cy="305" r="59" stroke="white" stroke-width="2"/>
<circle cx="282" cy="305" r="59" stroke="white" stroke-width="2"/>
<circle cx="282" cy="305" r="45" stroke="white" stroke-width="2"/>
<path d="M276.105 329.12C279.985 328.795 283.886 328.828 287.76 329.219C288.571 329.56 287.118 333.967 286.483 334.628C283.621 335.112 280.7 335.124 277.834 334.663C277.184 334.016 275.576 329.646 276.105 329.12" stroke="white" stroke-width="2"/>
<path d="M259.459 314.662C262.271 317.68 264.792 320.953 266.992 324.437C267.224 325.331 262.611 326.978 261.668 326.858C259.402 324.787 257.488 322.364 256 319.684C256.09 318.753 258.688 314.58 259.459 314.662" stroke="white" stroke-width="2"/>
<path d="M260 292.611C259.359 296.619 258.352 300.557 256.993 304.376C256.442 305.058 252.413 302.534 252 301.712C252.212 298.706 252.93 295.76 254.123 293C254.884 292.457 259.601 291.929 260 292.611" stroke="white" stroke-width="2"/>
<path d="M277.98 279.948C274.499 282.053 270.854 283.801 267.091 285.169C266.244 285.169 265.742 279.965 266.137 278.962C268.574 277.178 271.25 275.84 274.064 275C275.011 275.361 278.282 279.13 277.98 279.948" stroke="white" stroke-width="2"/>
<path d="M298.826 286.187C295.069 284.565 291.468 282.609 288.065 280.342C287.479 279.604 291.011 276.29 291.924 276.017C294.814 276.966 297.518 278.404 299.917 280.268C300.236 281.139 299.59 285.943 298.826 286.187" stroke="white" stroke-width="2"/>
<path d="M306.897 306.462C305.895 302.615 305.26 298.679 305 294.709C305.198 293.888 309.792 294.543 310.528 295.12C311.466 297.907 311.963 300.828 312 303.774C311.547 304.567 307.513 306.944 306.897 306.462" stroke="white" stroke-width="2"/>
<path d="M296 325.429C298.392 322.299 301.045 319.383 303.929 316.714C304.734 316.384 307 320.473 307 321.361C305.442 323.833 303.502 326.034 301.253 327.878C300.314 327.964 296.028 326.195 296 325.429" stroke="white" stroke-width="2"/>
<path d="M282.908 313.108C281.24 313.107 279.611 312.603 278.224 311.661C276.838 310.719 275.758 309.38 275.12 307.814C274.481 306.247 274.314 304.524 274.638 302.861C274.962 301.197 275.763 299.669 276.941 298.469C278.119 297.269 279.62 296.45 281.255 296.117C282.89 295.784 284.585 295.951 286.126 296.597C287.668 297.243 288.986 298.34 289.915 299.748C290.845 301.155 291.343 302.811 291.347 304.507C291.352 305.636 291.136 306.755 290.714 307.8C290.292 308.844 289.671 309.793 288.886 310.593C288.102 311.392 287.17 312.026 286.144 312.457C285.118 312.889 284.018 313.11 282.908 313.108" stroke="white" stroke-width="2"/>
<path d="M351 260.262L312.999 232.206C312.999 232.206 252.929 230.712 251.926 232.228C250.902 233.715 209.387 260.236 209.387 260.236L213.848 261.759L253.42 239.713H311.442L345.009 261.23L351 260.262Z" fill="#3F89E4" stroke="white" stroke-width="2"/>
<circle cx="567.5" cy="280.5" r="25.5" stroke="white" stroke-width="2"/>
<circle cx="567.5" cy="280.5" r="25.5" stroke="white" stroke-width="2"/>
<circle cx="567.5" cy="280.5" r="15.5" stroke="white" stroke-width="2"/>
<circle cx="567.5" cy="280.5" r="7.5" stroke="white" stroke-width="2"/>
<path d="M567.5 265V272.5M567.5 288.5V295M560 280.5H552M575 280.5H583" stroke="white" stroke-width="2"/>
<path d="M575 267.01L571.25 273.505M563.25 287.361L560 292.991M560.755 276.683L553.827 272.683M573.745 284.183L580.673 288.183" stroke="white" stroke-width="2"/>
<path d="M580.49 272.5L573.995 276.25M560.139 284.25L554.509 287.5M563.317 273.755L559.317 266.827M570.817 286.745L574.817 293.673" stroke="white" stroke-width="2"/>
<path d="M391.5 276V256.5C391.5 253.739 393.739 251.5 396.5 251.5H403C405.761 251.5 408 253.739 408 256.5V276C408 278.761 405.761 281 403 281H396.5C393.739 281 391.5 278.761 391.5 276Z" stroke="white" stroke-width="2"/>
<path d="M155 276V256.5C155 253.739 157.239 251.5 160 251.5H166.5C169.261 251.5 171.5 253.739 171.5 256.5V276C171.5 278.761 169.261 281 166.5 281H160C157.239 281 155 278.761 155 276Z" fill="#3F89E4" stroke="white" stroke-width="2"/>
<g data-option="Средняя щетка" class="hide">
    <path d="M416.637 303.554C417.013 302.877 417.987 302.877 418.363 303.554C418.712 304.183 419.596 304.239 420.021 303.658C420.479 303.034 421.445 303.156 421.733 303.874C422.001 304.542 422.871 304.708 423.366 304.186C423.898 303.624 424.841 303.866 425.037 304.615C425.219 305.311 426.061 305.585 426.617 305.128C427.216 304.637 428.121 304.996 428.222 305.764C428.315 306.477 429.116 306.854 429.725 306.471C430.381 306.059 431.234 306.528 431.237 307.302C431.241 308.022 431.988 308.497 432.641 308.193C433.343 307.866 434.13 308.438 434.037 309.207C433.949 309.922 434.632 310.486 435.317 310.266C436.055 310.03 436.764 310.697 436.575 311.448C436.399 312.145 437.005 312.791 437.713 312.659C438.474 312.517 439.094 313.267 438.812 313.989C438.55 314.659 439.071 315.375 439.789 315.333C440.562 315.288 441.084 316.11 440.714 316.79C440.37 317.422 440.796 318.198 441.514 318.246C442.287 318.298 442.702 319.179 442.249 319.807C441.828 320.392 442.154 321.215 442.861 321.353C443.621 321.501 443.922 322.427 443.394 322.994C442.904 323.52 443.124 324.378 443.807 324.603C444.543 324.846 444.725 325.802 444.131 326.298C443.578 326.759 443.689 327.638 444.339 327.947C445.038 328.28 445.099 329.251 444.447 329.669C443.841 330.057 443.841 330.943 444.447 331.331C445.099 331.749 445.038 332.72 444.339 333.053C443.689 333.362 443.578 334.241 444.131 334.702C444.725 335.198 444.543 336.154 443.807 336.397C443.124 336.622 442.904 337.48 443.394 338.006C443.922 338.573 443.621 339.499 442.861 339.647C442.154 339.785 441.828 340.608 442.249 341.193C442.702 341.821 442.287 342.702 441.514 342.754C440.796 342.802 440.37 343.578 440.714 344.21C441.084 344.89 440.562 345.712 439.789 345.667C439.071 345.625 438.55 346.341 438.812 347.011C439.094 347.733 438.474 348.483 437.713 348.341C437.005 348.209 436.399 348.855 436.575 349.552C436.764 350.303 436.055 350.97 435.317 350.734C434.632 350.514 433.949 351.078 434.037 351.793C434.13 352.562 433.343 353.134 432.641 352.807C431.988 352.503 431.241 352.978 431.237 353.698C431.234 354.472 430.381 354.941 429.725 354.529C429.116 354.146 428.315 354.523 428.222 355.236C428.121 356.004 427.216 356.363 426.617 355.872C426.061 355.415 425.219 355.689 425.037 356.385C424.841 357.134 423.898 357.376 423.366 356.814C422.871 356.292 422.001 356.458 421.733 357.126C421.445 357.844 420.479 357.966 420.021 357.342C419.596 356.761 418.712 356.817 418.363 357.446C417.987 358.123 417.013 358.123 416.637 357.446C416.288 356.817 415.404 356.761 414.979 357.342C414.521 357.966 413.555 357.844 413.267 357.126C412.999 356.458 412.129 356.292 411.634 356.814C411.102 357.376 410.159 357.134 409.963 356.385C409.781 355.689 408.939 355.415 408.383 355.872C407.784 356.363 406.879 356.004 406.778 355.236C406.685 354.523 405.884 354.146 405.275 354.529C404.619 354.941 403.766 354.472 403.763 353.698C403.76 352.978 403.012 352.503 402.359 352.807C401.657 353.134 400.87 352.562 400.963 351.793C401.051 351.078 400.368 350.514 399.683 350.734C398.945 350.97 398.236 350.303 398.425 349.552C398.601 348.855 397.995 348.209 397.287 348.341C396.526 348.483 395.906 347.733 396.188 347.011C396.45 346.341 395.929 345.625 395.211 345.667C394.438 345.712 393.916 344.89 394.286 344.21C394.63 343.578 394.204 342.802 393.486 342.754C392.713 342.702 392.298 341.821 392.751 341.193C393.172 340.608 392.846 339.785 392.139 339.647C391.379 339.499 391.078 338.573 391.606 338.006C392.096 337.48 391.876 336.622 391.193 336.397C390.457 336.154 390.275 335.198 390.869 334.702C391.422 334.241 391.311 333.362 390.661 333.053C389.962 332.72 389.901 331.749 390.553 331.331C391.159 330.943 391.159 330.057 390.553 329.669C389.901 329.251 389.962 328.28 390.661 327.947C391.311 327.638 391.422 326.759 390.869 326.298C390.275 325.802 390.457 324.846 391.193 324.603C391.876 324.378 392.096 323.52 391.606 322.994C391.078 322.427 391.379 321.501 392.139 321.353C392.846 321.215 393.172 320.392 392.751 319.807C392.298 319.179 392.713 318.298 393.486 318.246C394.204 318.198 394.63 317.422 394.286 316.79C393.916 316.11 394.438 315.288 395.211 315.333C395.929 315.375 396.45 314.659 396.188 313.989C395.906 313.267 396.526 312.517 397.287 312.659C397.995 312.791 398.601 312.145 398.425 311.448C398.236 310.697 398.945 310.03 399.683 310.266C400.368 310.486 401.051 309.922 400.963 309.207C400.87 308.438 401.657 307.866 402.359 308.193C403.012 308.497 403.76 308.022 403.763 307.302C403.766 306.528 404.619 306.059 405.275 306.471C405.884 306.854 406.685 306.477 406.778 305.764C406.879 304.996 407.784 304.637 408.383 305.128C408.939 305.585 409.781 305.311 409.963 304.615C410.159 303.866 411.102 303.624 411.634 304.186C412.129 304.708 412.999 304.542 413.267 303.874C413.555 303.156 414.521 303.034 414.979 303.658C415.404 304.239 416.288 304.183 416.637 303.554Z" fill="#3F89E4" stroke="white" stroke-width="2"/>
    <path d="M435.898 330.8C435.898 331.2 435.572 331.525 435.169 331.525C434.767 331.525 434.441 331.2 434.441 330.8C434.441 330.4 434.767 330.075 435.169 330.075C435.572 330.075 435.898 330.4 435.898 330.8Z" fill="white"/>
    <path d="M429.339 337.325C429.339 337.725 429.013 338.05 428.61 338.05C428.208 338.05 427.881 337.725 427.881 337.325C427.881 336.925 428.208 336.6 428.61 336.6C429.013 336.6 429.339 336.925 429.339 337.325Z" fill="white"/>
    <path d="M422.051 335.15C422.051 335.55 421.725 335.875 421.322 335.875C420.92 335.875 420.593 335.55 420.593 335.15C420.593 334.75 420.92 334.425 421.322 334.425C421.725 334.425 422.051 334.75 422.051 335.15Z" fill="white"/>
    <path d="M407.475 340.225C407.475 340.625 407.148 340.95 406.746 340.95C406.343 340.95 406.017 340.625 406.017 340.225C406.017 339.825 406.343 339.5 406.746 339.5C407.148 339.5 407.475 339.825 407.475 340.225Z" fill="white"/>
    <path d="M399.458 330.075C399.458 330.475 399.131 330.8 398.729 330.8C398.326 330.8 398 330.475 398 330.075C398 329.675 398.326 329.35 398.729 329.35C399.131 329.35 399.458 329.675 399.458 330.075Z" fill="white"/>
    <path d="M406.017 325.725C406.017 326.125 405.691 326.45 405.288 326.45C404.886 326.45 404.559 326.125 404.559 325.725C404.559 325.325 404.886 325 405.288 325C405.691 325 406.017 325.325 406.017 325.725Z" fill="white"/>
    <path d="M419.864 343.125C419.864 343.525 419.538 343.85 419.136 343.85C418.733 343.85 418.407 343.525 418.407 343.125C418.407 342.725 418.733 342.4 419.136 342.4C419.538 342.4 419.864 342.725 419.864 343.125Z" fill="white"/>
    <path d="M410.39 346.025C410.39 346.425 410.064 346.75 409.661 346.75C409.259 346.75 408.932 346.425 408.932 346.025C408.932 345.625 409.259 345.3 409.661 345.3C410.064 345.3 410.39 345.625 410.39 346.025Z" fill="white"/>
    <path d="M399.458 320.65C399.458 321.05 399.131 321.375 398.729 321.375C398.326 321.375 398 321.05 398 320.65C398 320.25 398.326 319.925 398.729 319.925C399.131 319.925 399.458 320.25 399.458 320.65Z" fill="white"/>
    <path d="M441 324.275C441 324.675 440.674 325 440.271 325C439.869 325 439.542 324.675 439.542 324.275C439.542 323.875 439.869 323.55 440.271 323.55C440.674 323.55 441 323.875 441 324.275Z" fill="white"/>
    <path d="M432.254 324.275C432.254 324.675 431.928 325 431.525 325C431.123 325 430.797 324.675 430.797 324.275C430.797 323.875 431.123 323.55 431.525 323.55C431.928 323.55 432.254 323.875 432.254 324.275Z" fill="white"/>
    <path d="M425.695 348.2C425.695 348.6 425.369 348.925 424.966 348.925C424.564 348.925 424.237 348.6 424.237 348.2C424.237 347.8 424.564 347.475 424.966 347.475C425.369 347.475 425.695 347.8 425.695 348.2Z" fill="white"/>
    <path d="M434.441 341.675C434.441 342.075 434.114 342.4 433.712 342.4C433.309 342.4 432.983 342.075 432.983 341.675C432.983 341.275 433.309 340.95 433.712 340.95C434.114 340.95 434.441 341.275 434.441 341.675Z" fill="white"/>
    <path d="M406.746 335.15C406.746 335.55 406.419 335.875 406.017 335.875C405.614 335.875 405.288 335.55 405.288 335.15C405.288 334.75 405.614 334.425 406.017 334.425C406.419 334.425 406.746 334.75 406.746 335.15Z" fill="white"/>
    <path d="M409.017 315.725C409.017 316.125 408.691 316.45 408.288 316.45C407.886 316.45 407.559 316.125 407.559 315.725C407.559 315.325 407.886 315 408.288 315C408.691 315 409.017 315.325 409.017 315.725Z" fill="white"/>
    <path d="M412.017 321.725C412.017 322.125 411.691 322.45 411.288 322.45C410.886 322.45 410.559 322.125 410.559 321.725C410.559 321.325 410.886 321 411.288 321C411.691 321 412.017 321.325 412.017 321.725Z" fill="white"/>
    <path d="M422.017 321.725C422.017 322.125 421.691 322.45 421.288 322.45C420.886 322.45 420.559 322.125 420.559 321.725C420.559 321.325 420.886 321 421.288 321C421.691 321 422.017 321.325 422.017 321.725Z" fill="white"/>
    <path d="M422.017 312.725C422.017 313.125 421.691 313.45 421.288 313.45C420.886 313.45 420.559 313.125 420.559 312.725C420.559 312.325 420.886 312 421.288 312C421.691 312 422.017 312.325 422.017 312.725Z" fill="white"/>
    <rect x="445" y="268" width="24" height="49" rx="5" fill="#3F89E4" stroke="white" stroke-width="2"/>
    <path d="M449.446 300.941C451.989 299.099 455.58 300.029 456.909 302.874L460.272 310.074C461.441 312.576 460.36 315.552 457.858 316.72L419.74 334.524C417.273 335.676 414.34 334.611 413.188 332.144C412.188 330.003 412.848 327.454 414.762 326.067L449.446 300.941Z" fill="#3F89E4" stroke="white" stroke-width="2"/>
</g>
<path d="M909.303 261.722L857.542 278.169C856.982 278.347 856.39 278.006 856.263 277.433L854.72 270.49C854.599 269.946 854.947 269.407 855.493 269.294L908.797 258.249C909.418 258.121 910 258.595 910 259.228V260.768C910 261.204 909.718 261.59 909.303 261.722Z" fill="#3F89E4" stroke="white" stroke-width="2"/>
<path d="M909.184 236.653L857.45 246.322C856.92 246.421 856.407 246.083 856.29 245.556L854.74 238.581C854.612 238.003 855.012 237.44 855.6 237.371L908.884 231.131C909.478 231.061 910 231.526 910 232.124V235.67C910 236.151 909.657 236.564 909.184 236.653Z" fill="#3F89E4" stroke="white" stroke-width="2"/>
<path d="M857.232 232.615C857.03 230.011 854.858 228 852.246 228H848.754C846.142 228 843.97 230.011 843.768 232.615L842.03 255.115C842.01 255.371 842.01 255.629 842.03 255.885L843.768 278.385C843.97 280.989 846.142 283 848.754 283H852.246C854.858 283 857.03 280.989 857.232 278.385L858.97 255.885C858.99 255.629 858.99 255.371 858.97 255.115L857.232 232.615Z" fill="#3F89E4" stroke="white" stroke-width="2"/>
<path fill-rule="evenodd" clip-rule="evenodd" d="M922.38 230.018C923.994 230.007 925.514 230.775 926.462 232.081L934.633 243.341C936.015 245.245 935.883 247.854 934.316 249.608L923.848 261.33C922.899 262.393 921.543 263 920.119 263L901 263C898.239 263 896 260.761 896 258L896 235.17C896 232.422 898.217 230.189 900.965 230.17L922.38 230.018ZM910 252C912.761 252 915 249.761 915 247C915 244.239 912.761 242 910 242C907.239 242 905 244.239 905 247C905 249.761 907.239 252 910 252Z" fill="#3F89E4"/>
<path d="M926.462 232.081L925.653 232.669V232.669L926.462 232.081ZM922.38 230.018L922.387 231.018L922.38 230.018ZM934.633 243.341L933.824 243.928L933.824 243.928L934.633 243.341ZM934.316 249.608L935.062 250.274L934.316 249.608ZM923.848 261.33L924.594 261.996L923.848 261.33ZM920.119 263V264V263ZM901 263V262V263ZM896 258H895H896ZM896 235.17H897H896ZM900.965 230.17L900.958 229.17L900.965 230.17ZM927.272 231.494C926.134 229.927 924.31 229.005 922.373 229.018L922.387 231.018C923.679 231.009 924.895 231.624 925.653 232.669L927.272 231.494ZM935.443 242.754L927.272 231.494L925.653 232.669L933.824 243.928L935.443 242.754ZM935.062 250.274C936.942 248.169 937.1 245.038 935.443 242.754L933.824 243.928C934.929 245.451 934.823 247.539 933.57 248.942L935.062 250.274ZM924.594 261.996L935.062 250.274L933.57 248.942L923.102 260.664L924.594 261.996ZM920.119 264C921.828 264 923.456 263.271 924.594 261.996L923.102 260.664C922.343 261.514 921.258 262 920.119 262V264ZM901 264L920.119 264V262L901 262V264ZM895 258C895 261.314 897.686 264 901 264V262C898.791 262 897 260.209 897 258H895ZM895 235.17L895 258H897L897 235.17L895 235.17ZM900.958 229.17C897.66 229.193 895 231.873 895 235.17L897 235.17C897 232.972 898.774 231.185 900.972 231.17L900.958 229.17ZM922.373 229.018L900.958 229.17L900.972 231.17L922.387 231.018L922.373 229.018ZM914 247C914 249.209 912.209 251 910 251V253C913.314 253 916 250.314 916 247H914ZM910 243C912.209 243 914 244.791 914 247H916C916 243.686 913.314 241 910 241V243ZM906 247C906 244.791 907.791 243 910 243V241C906.686 241 904 243.686 904 247H906ZM910 251C907.791 251 906 249.209 906 247H904C904 250.314 906.686 253 910 253V251Z" fill="white"/>
<path d="M933 286L931.116 290.049L928.819 286.219L927.368 290.443L924.684 286.874L923.683 291.227L920.639 287.958L920.099 292.391L916.731 289.458L916.656 293.924L913 291.359L913.393 295.808L909.489 293.639L910.344 298.023L906.235 296.274L907.544 300.544L903.274 299.235L905.023 303.344L900.639 302.489L902.808 306.393L898.359 306L900.924 309.656L896.458 309.731L899.391 313.099L894.958 313.639L898.227 316.683L893.874 317.684L897.443 320.368L893.219 321.819L897.049 324.116L893 326L897.049 327.884L893.219 330.181L897.443 331.632L893.874 334.316L898.227 335.317L894.958 338.361L899.391 338.901L896.458 342.269L900.924 342.344L898.359 346L902.808 345.607L900.639 349.511L905.023 348.656L903.274 352.765L907.544 351.456L906.235 355.726L910.344 353.977L909.489 358.361L913.393 356.192L913 360.641L916.656 358.076L916.731 362.542L920.099 359.609L920.639 364.042L923.683 360.773L924.684 365.126L927.368 361.557L928.819 365.781L931.116 361.951L933 366L934.884 361.951L937.181 365.781L938.632 361.557L941.316 365.126L942.317 360.773L945.361 364.042L945.901 359.609L949.269 362.542L949.344 358.076L953 360.641L952.607 356.192L956.511 358.361L955.656 353.977L959.765 355.726L958.456 351.456L962.726 352.765L960.977 348.656L965.361 349.511L963.192 345.607L967.641 346L965.076 342.344L969.542 342.269L966.609 338.901L971.042 338.361L967.773 335.317L972.126 334.316L968.557 331.632L972.781 330.181L968.951 327.884L973 326L968.951 324.116L972.781 321.819L968.557 320.368L972.126 317.684L967.773 316.683L971.042 313.639L966.609 313.099L969.542 309.731L965.076 309.656L967.641 306L963.192 306.393L965.361 302.489L960.977 303.344L962.726 299.235L958.456 300.544L959.765 296.274L955.656 298.023L956.511 293.639L952.607 295.808L953 291.359L949.344 293.924L949.269 289.458L945.901 292.391L945.361 287.958L942.317 291.227L941.316 286.874L938.632 290.443L937.181 286.219L934.884 290.049L933 286Z" stroke="white"/>
<path d="M934.211 288.181C933.683 287.231 932.317 287.231 931.789 288.181C931.299 289.064 930.058 289.142 929.461 288.327C928.819 287.451 927.463 287.622 927.059 288.631C926.683 289.568 925.462 289.801 924.768 289.068C924.02 288.279 922.697 288.618 922.422 289.67C922.167 290.647 920.985 291.031 920.204 290.391C919.363 289.702 918.093 290.205 917.952 291.282C917.821 292.284 916.697 292.813 915.841 292.275C914.921 291.697 913.724 292.355 913.719 293.442C913.715 294.452 912.666 295.118 911.75 294.692C910.765 294.233 909.659 295.036 909.791 296.115C909.913 297.118 908.956 297.91 907.994 297.602C906.959 297.271 905.962 298.206 906.228 299.26C906.475 300.239 905.625 301.145 904.632 300.96C903.563 300.761 902.692 301.814 903.088 302.826C903.456 303.767 902.725 304.772 901.717 304.713C900.632 304.649 899.9 305.803 900.419 306.758C900.902 307.645 900.303 308.734 899.296 308.802C898.211 308.875 897.629 310.111 898.265 310.993C898.855 311.813 898.397 312.968 897.406 313.162C896.339 313.37 895.917 314.669 896.658 315.465C897.346 316.204 897.037 317.408 896.077 317.724C895.045 318.064 894.789 319.406 895.624 320.103C896.399 320.75 896.244 321.983 895.331 322.417C894.35 322.884 894.264 324.248 895.179 324.834C896.03 325.379 896.03 326.621 895.179 327.166C894.264 327.752 894.35 329.116 895.331 329.583C896.244 330.017 896.399 331.25 895.624 331.897C894.789 332.594 895.045 333.936 896.077 334.276C897.037 334.592 897.346 335.796 896.658 336.535C895.917 337.331 896.339 338.63 897.406 338.838C898.397 339.032 898.855 340.187 898.265 341.007C897.629 341.889 898.211 343.125 899.296 343.198C900.303 343.266 900.902 344.355 900.419 345.242C899.9 346.197 900.632 347.351 901.717 347.287C902.725 347.228 903.456 348.233 903.088 349.174C902.692 350.186 903.563 351.239 904.632 351.04C905.625 350.855 906.475 351.761 906.228 352.74C905.962 353.794 906.959 354.729 907.994 354.398C908.956 354.09 909.913 354.882 909.791 355.885C909.659 356.964 910.765 357.767 911.75 357.308C912.666 356.882 913.715 357.548 913.719 358.558C913.724 359.645 914.921 360.303 915.841 359.725C916.697 359.187 917.821 359.716 917.952 360.718C918.093 361.795 919.363 362.298 920.204 361.609C920.985 360.969 922.167 361.353 922.422 362.33C922.697 363.382 924.02 363.721 924.768 362.932C925.462 362.199 926.683 362.432 927.059 363.369C927.463 364.378 928.819 364.549 929.461 363.673C930.058 362.858 931.299 362.936 931.789 363.819C932.317 364.77 933.683 364.77 934.211 363.819C934.701 362.936 935.942 362.858 936.539 363.673C937.181 364.549 938.537 364.378 938.941 363.369C939.317 362.432 940.538 362.199 941.232 362.932C941.98 363.721 943.303 363.382 943.578 362.33C943.833 361.353 945.015 360.969 945.796 361.609C946.637 362.298 947.907 361.795 948.048 360.718C948.179 359.716 949.303 359.187 950.159 359.725C951.079 360.303 952.276 359.645 952.281 358.558C952.285 357.548 953.334 356.882 954.25 357.308C955.235 357.767 956.341 356.964 956.209 355.885C956.087 354.882 957.044 354.09 958.006 354.398C959.041 354.729 960.038 353.794 959.772 352.74C959.525 351.761 960.375 350.855 961.368 351.04C962.437 351.239 963.308 350.186 962.912 349.174C962.544 348.233 963.275 347.228 964.283 347.287C965.368 347.351 966.1 346.197 965.581 345.242C965.098 344.355 965.697 343.266 966.704 343.198C967.789 343.125 968.371 341.889 967.735 341.007C967.145 340.187 967.603 339.032 968.594 338.838C969.661 338.63 970.083 337.331 969.342 336.535C968.654 335.796 968.963 334.592 969.923 334.276C970.955 333.936 971.211 332.594 970.376 331.897C969.601 331.25 969.756 330.017 970.669 329.583C971.65 329.116 971.736 327.752 970.821 327.166C969.97 326.621 969.97 325.379 970.821 324.834C971.736 324.248 971.65 322.884 970.669 322.417C969.756 321.983 969.601 320.75 970.376 320.103C971.211 319.406 970.955 318.064 969.923 317.724C968.963 317.408 968.654 316.204 969.342 315.465C970.083 314.669 969.661 313.37 968.594 313.162C967.603 312.968 967.145 311.813 967.735 310.993C968.371 310.111 967.789 308.875 966.704 308.802C965.697 308.734 965.098 307.645 965.581 306.758C966.1 305.803 965.368 304.649 964.283 304.713C963.275 304.772 962.544 303.767 962.912 302.826C963.308 301.814 962.437 300.761 961.368 300.96C960.375 301.145 959.525 300.239 959.772 299.26C960.038 298.206 959.041 297.271 958.006 297.602C957.044 297.91 956.087 297.118 956.209 296.115C956.341 295.036 955.235 294.233 954.25 294.692C953.334 295.118 952.285 294.452 952.281 293.442C952.276 292.355 951.079 291.697 950.159 292.275C949.303 292.813 948.179 292.284 948.048 291.282C947.907 290.205 946.637 289.702 945.796 290.391C945.015 291.031 943.833 290.647 943.578 289.67C943.303 288.618 941.98 288.279 941.232 289.068C940.538 289.801 939.317 289.568 938.941 288.631C938.537 287.622 937.181 287.451 936.539 288.327C935.942 289.142 934.701 289.064 934.211 288.181Z" fill="#3F89E4" stroke="white" stroke-width="2"/>
<path d="M888.544 295.006C886.094 295.502 884.387 297.731 884.546 300.225L885.202 310.516C885.374 313.212 887.657 315.285 890.358 315.195L975.818 312.364C978.578 312.272 980.741 309.961 980.65 307.201L980.362 298.511C980.284 296.142 978.552 294.153 976.216 293.75L933.172 286.317C932.561 286.211 931.936 286.22 931.329 286.343L888.544 295.006Z" fill="#3F89E4" stroke="white" stroke-width="2"/>
<path d="M941.415 247.691C941.252 245.055 939.066 243 936.425 243H928.575C925.934 243 923.748 245.055 923.585 247.691L921 289.5L923.585 331.309C923.748 333.945 925.934 336 928.575 336H936.425C939.066 336 941.252 333.945 941.415 331.309L944 289.5L941.415 247.691Z" fill="#3F89E4" stroke="white" stroke-width="2"/>
<path d="M957 333C957 333.552 956.552 334 956 334C955.448 334 955 333.552 955 333C955 332.448 955.448 332 956 332C956.552 332 957 332.448 957 333Z" fill="white"/>
<path d="M948 342C948 342.552 947.552 343 947 343C946.448 343 946 342.552 946 342C946 341.448 946.448 341 947 341C947.552 341 948 341.448 948 342Z" fill="white"/>
<path d="M938 339C938 339.552 937.552 340 937 340C936.448 340 936 339.552 936 339C936 338.448 936.448 338 937 338C937.552 338 938 338.448 938 339Z" fill="white"/>
<path d="M918 346C918 346.552 917.552 347 917 347C916.448 347 916 346.552 916 346C916 345.448 916.448 345 917 345C917.552 345 918 345.448 918 346Z" fill="white"/>
<path d="M907 332C907 332.552 906.552 333 906 333C905.448 333 905 332.552 905 332C905 331.448 905.448 331 906 331C906.552 331 907 331.448 907 332Z" fill="white"/>
<path d="M916 326C916 326.552 915.552 327 915 327C914.448 327 914 326.552 914 326C914 325.448 914.448 325 915 325C915.552 325 916 325.448 916 326Z" fill="white"/>
<path d="M935 350C935 350.552 934.552 351 934 351C933.448 351 933 350.552 933 350C933 349.448 933.448 349 934 349C934.552 349 935 349.448 935 350Z" fill="white"/>
<path d="M922 354C922 354.552 921.552 355 921 355C920.448 355 920 354.552 920 354C920 353.448 920.448 353 921 353C921.552 353 922 353.448 922 354Z" fill="white"/>
<path d="M907 319C907 319.552 906.552 320 906 320C905.448 320 905 319.552 905 319C905 318.448 905.448 318 906 318C906.552 318 907 318.448 907 319Z" fill="white"/>
<path d="M964 324C964 324.552 963.552 325 963 325C962.448 325 962 324.552 962 324C962 323.448 962.448 323 963 323C963.552 323 964 323.448 964 324Z" fill="white"/>
<path d="M952 324C952 324.552 951.552 325 951 325C950.448 325 950 324.552 950 324C950 323.448 950.448 323 951 323C951.552 323 952 323.448 952 324Z" fill="white"/>
<path d="M943 357C943 357.552 942.552 358 942 358C941.448 358 941 357.552 941 357C941 356.448 941.448 356 942 356C942.552 356 943 356.448 943 357Z" fill="white"/>
<path d="M955 348C955 348.552 954.552 349 954 349C953.448 349 953 348.552 953 348C953 347.448 953.448 347 954 347C954.552 347 955 347.448 955 348Z" fill="white"/>
<path d="M917 339C917 339.552 916.552 340 916 340C915.448 340 915 339.552 915 339C915 338.448 915.448 338 916 338C916.552 338 917 338.448 917 339Z" fill="white"/>
<path d="M909.303 261.722L857.542 278.169C856.982 278.347 856.39 278.006 856.263 277.433L854.72 270.49C854.599 269.946 854.947 269.407 855.493 269.294L908.797 258.249C909.418 258.121 910 258.595 910 259.228V260.768C910 261.204 909.718 261.59 909.303 261.722Z" fill="#3F89E4" stroke="white" stroke-width="2"/>
<path d="M909.184 236.653L857.45 246.322C856.92 246.421 856.407 246.083 856.29 245.556L854.74 238.581C854.612 238.003 855.012 237.44 855.6 237.371L908.884 231.131C909.478 231.061 910 231.526 910 232.124V235.67C910 236.151 909.657 236.564 909.184 236.653Z" fill="#3F89E4" stroke="white" stroke-width="2"/>
<path d="M857.232 232.615C857.03 230.011 854.858 228 852.246 228H848.754C846.142 228 843.97 230.011 843.768 232.615L842.03 255.115C842.01 255.371 842.01 255.629 842.03 255.885L843.768 278.385C843.97 280.989 846.142 283 848.754 283H852.246C854.858 283 857.03 280.989 857.232 278.385L858.97 255.885C858.99 255.629 858.99 255.371 858.97 255.115L857.232 232.615Z" fill="#3F89E4" stroke="white" stroke-width="2"/>
<path fill-rule="evenodd" clip-rule="evenodd" d="M922.38 230.018C923.994 230.007 925.514 230.775 926.462 232.081L934.633 243.341C936.015 245.245 935.883 247.854 934.316 249.608L923.848 261.33C922.899 262.393 921.543 263 920.119 263L901 263C898.239 263 896 260.761 896 258L896 235.17C896 232.422 898.217 230.189 900.965 230.17L922.38 230.018ZM910 252C912.761 252 915 249.761 915 247C915 244.239 912.761 242 910 242C907.239 242 905 244.239 905 247C905 249.761 907.239 252 910 252Z" fill="#3F89E4"/>
<path d="M926.462 232.081L925.653 232.669V232.669L926.462 232.081ZM922.38 230.018L922.387 231.018L922.38 230.018ZM934.633 243.341L933.824 243.928L933.824 243.928L934.633 243.341ZM934.316 249.608L935.062 250.274L934.316 249.608ZM923.848 261.33L924.594 261.996L923.848 261.33ZM920.119 263V264V263ZM901 263V262V263ZM896 258H895H896ZM896 235.17H897H896ZM900.965 230.17L900.958 229.17L900.965 230.17ZM927.272 231.494C926.134 229.927 924.31 229.005 922.373 229.018L922.387 231.018C923.679 231.009 924.895 231.624 925.653 232.669L927.272 231.494ZM935.443 242.754L927.272 231.494L925.653 232.669L933.824 243.928L935.443 242.754ZM935.062 250.274C936.942 248.169 937.1 245.038 935.443 242.754L933.824 243.928C934.929 245.451 934.823 247.539 933.57 248.942L935.062 250.274ZM924.594 261.996L935.062 250.274L933.57 248.942L923.102 260.664L924.594 261.996ZM920.119 264C921.828 264 923.456 263.271 924.594 261.996L923.102 260.664C922.343 261.514 921.258 262 920.119 262V264ZM901 264L920.119 264V262L901 262V264ZM895 258C895 261.314 897.686 264 901 264V262C898.791 262 897 260.209 897 258H895ZM895 235.17L895 258H897L897 235.17L895 235.17ZM900.958 229.17C897.66 229.193 895 231.873 895 235.17L897 235.17C897 232.972 898.774 231.185 900.972 231.17L900.958 229.17ZM922.373 229.018L900.958 229.17L900.972 231.17L922.387 231.018L922.373 229.018ZM914 247C914 249.209 912.209 251 910 251V253C913.314 253 916 250.314 916 247H914ZM910 243C912.209 243 914 244.791 914 247H916C916 243.686 913.314 241 910 241V243ZM906 247C906 244.791 907.791 243 910 243V241C906.686 241 904 243.686 904 247H906ZM910 251C907.791 251 906 249.209 906 247H904C904 250.314 906.686 253 910 253V251Z" fill="white"/>
<path d="M909.303 261.722L857.542 278.169C856.982 278.347 856.39 278.006 856.263 277.433L854.72 270.49C854.599 269.946 854.947 269.407 855.493 269.294L908.797 258.249C909.418 258.121 910 258.595 910 259.228V260.768C910 261.204 909.718 261.59 909.303 261.722Z" fill="#3F89E4" stroke="white" stroke-width="2"/>
<path d="M909.184 236.653L857.45 246.322C856.92 246.421 856.407 246.083 856.29 245.556L854.74 238.581C854.612 238.003 855.012 237.44 855.6 237.371L908.884 231.131C909.478 231.061 910 231.526 910 232.124V235.67C910 236.151 909.657 236.564 909.184 236.653Z" fill="#3F89E4" stroke="white" stroke-width="2"/>
<path d="M857.232 232.615C857.03 230.011 854.858 228 852.246 228H848.754C846.142 228 843.97 230.011 843.768 232.615L842.03 255.115C842.01 255.371 842.01 255.629 842.03 255.885L843.768 278.385C843.97 280.989 846.142 283 848.754 283H852.246C854.858 283 857.03 280.989 857.232 278.385L858.97 255.885C858.99 255.629 858.99 255.371 858.97 255.115L857.232 232.615Z" fill="#3F89E4" stroke="white" stroke-width="2"/>
<path fill-rule="evenodd" clip-rule="evenodd" d="M922.38 230.018C923.994 230.007 925.514 230.775 926.462 232.081L934.633 243.341C936.015 245.245 935.883 247.854 934.316 249.608L923.848 261.33C922.899 262.393 921.543 263 920.119 263L901 263C898.239 263 896 260.761 896 258L896 235.17C896 232.422 898.217 230.189 900.965 230.17L922.38 230.018ZM910 252C912.761 252 915 249.761 915 247C915 244.239 912.761 242 910 242C907.239 242 905 244.239 905 247C905 249.761 907.239 252 910 252Z" fill="#3F89E4"/>
<path d="M926.462 232.081L925.653 232.669V232.669L926.462 232.081ZM922.38 230.018L922.387 231.018L922.38 230.018ZM934.633 243.341L933.824 243.928L933.824 243.928L934.633 243.341ZM934.316 249.608L935.062 250.274L934.316 249.608ZM923.848 261.33L924.594 261.996L923.848 261.33ZM920.119 263V264V263ZM901 263V262V263ZM896 258H895H896ZM896 235.17H897H896ZM900.965 230.17L900.958 229.17L900.965 230.17ZM927.272 231.494C926.134 229.927 924.31 229.005 922.373 229.018L922.387 231.018C923.679 231.009 924.895 231.624 925.653 232.669L927.272 231.494ZM935.443 242.754L927.272 231.494L925.653 232.669L933.824 243.928L935.443 242.754ZM935.062 250.274C936.942 248.169 937.1 245.038 935.443 242.754L933.824 243.928C934.929 245.451 934.823 247.539 933.57 248.942L935.062 250.274ZM924.594 261.996L935.062 250.274L933.57 248.942L923.102 260.664L924.594 261.996ZM920.119 264C921.828 264 923.456 263.271 924.594 261.996L923.102 260.664C922.343 261.514 921.258 262 920.119 262V264ZM901 264L920.119 264V262L901 262V264ZM895 258C895 261.314 897.686 264 901 264V262C898.791 262 897 260.209 897 258H895ZM895 235.17L895 258H897L897 235.17L895 235.17ZM900.958 229.17C897.66 229.193 895 231.873 895 235.17L897 235.17C897 232.972 898.774 231.185 900.972 231.17L900.958 229.17ZM922.373 229.018L900.958 229.17L900.972 231.17L922.387 231.018L922.373 229.018ZM914 247C914 249.209 912.209 251 910 251V253C913.314 253 916 250.314 916 247H914ZM910 243C912.209 243 914 244.791 914 247H916C916 243.686 913.314 241 910 241V243ZM906 247C906 244.791 907.791 243 910 243V241C906.686 241 904 243.686 904 247H906ZM910 251C907.791 251 906 249.209 906 247H904C904 250.314 906.686 253 910 253V251Z" fill="white"/>
<path d="M925.01 247.798C924.987 247.277 925.368 246.826 925.886 246.762L934.722 245.664C935.332 245.589 935.866 246.077 935.844 246.692L934.116 295.965C934.113 296.071 934.126 296.177 934.155 296.278L947.887 343.631C948.059 344.222 947.661 344.826 947.05 344.902L938.214 345.999C937.696 346.064 937.217 345.72 937.111 345.209L927.18 297.066C927.17 297.014 927.163 296.961 927.161 296.908L925.01 247.798Z" fill="#3F89E4" stroke="white" stroke-width="2"/>
<path d="M942.578 361.219L938.373 345.756C938.252 345.311 938.451 344.841 938.855 344.618L941.589 343.11C942.208 342.768 942.977 343.16 943.064 343.862L945.163 360.755C945.231 361.303 944.842 361.803 944.294 361.871L943.666 361.949C943.172 362.01 942.708 361.699 942.578 361.219Z" fill="#3F89E4" stroke="white" stroke-width="2"/>
<path fill-rule="evenodd" clip-rule="evenodd" d="M863.192 272.042C861.586 272.038 860.076 272.805 859.133 274.105L850.953 285.376C849.572 287.28 849.704 289.889 851.27 291.643L861.738 303.366C862.687 304.428 864.044 305.035 865.468 305.035L939.586 305.035C942.348 305.035 944.586 302.797 944.586 300.035L944.586 277.228C944.586 274.471 942.355 272.235 939.599 272.228L863.192 272.042ZM865.586 294.035C862.825 294.035 860.586 291.797 860.586 289.035C860.586 286.274 862.825 284.035 865.586 284.035C868.348 284.035 870.586 286.274 870.586 289.035C870.586 291.797 868.348 294.035 865.586 294.035Z" fill="#3F89E4"/>
<path d="M859.133 274.105L859.942 274.692L859.133 274.105ZM863.192 272.042L863.189 273.042L863.192 272.042ZM850.953 285.376L850.144 284.789L850.953 285.376ZM851.27 291.643L852.016 290.977L851.27 291.643ZM861.738 303.366L862.484 302.7V302.7L861.738 303.366ZM865.468 305.035V306.035V305.035ZM939.586 305.035V304.035V305.035ZM944.586 300.035H945.586H944.586ZM944.586 277.228H943.586H944.586ZM939.599 272.228L939.596 273.228L939.599 272.228ZM858.323 273.518C859.455 271.958 861.267 271.037 863.194 271.042L863.189 273.042C861.904 273.038 860.696 273.652 859.942 274.692L858.323 273.518ZM850.144 284.789L858.323 273.518L859.942 274.692L851.762 285.964L850.144 284.789ZM850.525 292.309C848.645 290.204 848.486 287.073 850.144 284.789L851.762 285.964C850.657 287.487 850.763 289.574 852.016 290.977L850.525 292.309ZM860.992 304.032L850.525 292.309L852.016 290.977L862.484 302.7L860.992 304.032ZM865.468 306.035C863.759 306.035 862.131 305.306 860.992 304.032L862.484 302.7C863.243 303.549 864.328 304.035 865.468 304.035V306.035ZM939.586 306.035L865.468 306.035V304.035L939.586 304.035V306.035ZM945.586 300.035C945.586 303.349 942.9 306.035 939.586 306.035V304.035C941.796 304.035 943.586 302.244 943.586 300.035H945.586ZM945.586 277.228L945.586 300.035H943.586L943.586 277.228H945.586ZM939.601 271.228C942.909 271.236 945.586 273.92 945.586 277.228H943.586C943.586 275.023 941.802 273.233 939.596 273.228L939.601 271.228ZM863.194 271.042L939.601 271.228L939.596 273.228L863.189 273.042L863.194 271.042ZM861.586 289.035C861.586 291.244 863.377 293.035 865.586 293.035V295.035C862.273 295.035 859.586 292.349 859.586 289.035H861.586ZM865.586 285.035C863.377 285.035 861.586 286.826 861.586 289.035H859.586C859.586 285.722 862.273 283.035 865.586 283.035V285.035ZM869.586 289.035C869.586 286.826 867.796 285.035 865.586 285.035V283.035C868.9 283.035 871.586 285.722 871.586 289.035H869.586ZM865.586 293.035C867.796 293.035 869.586 291.244 869.586 289.035H871.586C871.586 292.349 868.9 295.035 865.586 295.035V293.035Z" fill="white"/>
<path d="M963.157 330.391L955.271 332.527L968.91 351.625L976.729 350.543L963.157 330.391Z" fill="#3F89E4" stroke="white" stroke-width="2"/>
<path d="M956 342.535L969.5 346.535C961.667 334.702 948.462 306.063 951 285.035C954.5 256.035 965 227.352 1010.5 207.035C970 205.535 939.5 252.535 938.5 285.035C937.7 311.035 949.833 334.202 956 342.535Z" fill="#3F89E4" stroke="white" stroke-width="2"/>
<path fill-rule="evenodd" clip-rule="evenodd" d="M845.906 265.036L859.139 275.462C860.02 276.157 861.11 276.535 862.233 276.535H890.15C894.04 276.535 896.444 272.293 894.437 268.959C885.856 254.704 873.336 233.874 869 226.535C864.052 218.161 857.201 220.593 853.965 223.146C853.648 223.396 853.319 223.63 852.962 223.818L846.671 227.129C845.029 227.994 844 229.697 844 231.554V261.109C844 262.641 844.702 264.088 845.906 265.036ZM856 258.535C856 260.468 854.433 262.035 852.5 262.035C850.567 262.035 849 260.468 849 258.535C849 256.602 850.567 255.035 852.5 255.035C854.433 255.035 856 256.602 856 258.535ZM882.5 271.035C884.433 271.035 886 269.468 886 267.535C886 265.602 884.433 264.035 882.5 264.035C880.567 264.035 879 265.602 879 267.535C879 269.468 880.567 271.035 882.5 271.035Z" fill="#3F89E4"/>
<path d="M859.139 275.462L858.52 276.248L858.52 276.248L859.139 275.462ZM845.906 265.036L846.525 264.251H846.525L845.906 265.036ZM894.437 268.959L893.581 269.475L894.437 268.959ZM869 226.535L869.861 226.026L869 226.535ZM853.965 223.146L854.584 223.931L854.584 223.931L853.965 223.146ZM852.962 223.818L852.496 222.933L852.496 222.933L852.962 223.818ZM846.671 227.129L847.137 228.014L847.137 228.014L846.671 227.129ZM859.758 274.677L846.525 264.251L845.287 265.822L858.52 276.248L859.758 274.677ZM862.233 275.535C861.335 275.535 860.463 275.233 859.758 274.677L858.52 276.248C859.578 277.082 860.886 277.535 862.233 277.535V275.535ZM890.15 275.535H862.233V277.535H890.15V275.535ZM893.581 269.475C895.185 272.14 893.264 275.535 890.15 275.535V277.535C894.816 277.535 897.703 272.445 895.294 268.444L893.581 269.475ZM868.139 227.044C872.478 234.387 885 255.221 893.581 269.475L895.294 268.444C886.712 254.186 874.195 233.36 869.861 226.026L868.139 227.044ZM854.584 223.931C856.085 222.748 858.377 221.636 860.797 221.742C863.137 221.844 865.805 223.094 868.139 227.044L869.861 226.026C867.246 221.602 864.015 219.881 860.884 219.744C857.833 219.61 855.082 220.991 853.346 222.361L854.584 223.931ZM853.427 224.703C853.861 224.475 854.244 224.2 854.584 223.931L853.346 222.361C853.051 222.593 852.777 222.785 852.496 222.933L853.427 224.703ZM847.137 228.014L853.427 224.703L852.496 222.933L846.206 226.244L847.137 228.014ZM845 231.554C845 230.069 845.823 228.706 847.137 228.014L846.206 226.244C844.234 227.282 843 229.326 843 231.554H845ZM845 261.109V231.554H843V261.109H845ZM846.525 264.251C845.562 263.492 845 262.335 845 261.109H843C843 262.947 843.843 264.684 845.287 265.822L846.525 264.251ZM852.5 263.035C854.985 263.035 857 261.02 857 258.535H855C855 259.916 853.881 261.035 852.5 261.035V263.035ZM848 258.535C848 261.02 850.015 263.035 852.5 263.035V261.035C851.119 261.035 850 259.916 850 258.535H848ZM852.5 254.035C850.015 254.035 848 256.05 848 258.535H850C850 257.154 851.119 256.035 852.5 256.035V254.035ZM857 258.535C857 256.05 854.985 254.035 852.5 254.035V256.035C853.881 256.035 855 257.154 855 258.535H857ZM885 267.535C885 268.916 883.881 270.035 882.5 270.035V272.035C884.985 272.035 887 270.02 887 267.535H885ZM882.5 265.035C883.881 265.035 885 266.154 885 267.535H887C887 265.05 884.985 263.035 882.5 263.035V265.035ZM880 267.535C880 266.154 881.119 265.035 882.5 265.035V263.035C880.015 263.035 878 265.05 878 267.535H880ZM882.5 270.035C881.119 270.035 880 268.916 880 267.535H878C878 270.02 880.015 272.035 882.5 272.035V270.035Z" fill="white"/>
<path d="M890 260C902.667 258 926.6 259.4 921 281C915.4 302.6 884.667 290 870 281" stroke="white" stroke-width="2"/>
<path d="M901 267C901.667 272.333 900 284 888 288C873 293 877 311 907 317" stroke="white" stroke-width="2"/>
<circle cx="972.5" cy="335.5" r="4.5" fill="#3F89E4" stroke="white" stroke-width="2"/>
<rect x="961" y="339" width="1" height="4" fill="white"/>
<rect x="965" y="338.5" width="1" height="4" fill="white"/>
<rect x="969" y="338" width="1" height="4" fill="white"/>
<path d="M960.264 332H968.566C970.131 332 971.539 332.953 972.12 334.406C973.063 336.764 971.492 339.369 968.967 339.635L960.71 340.504C958.193 340.769 956 338.795 956 336.264C956 333.909 957.909 332 960.264 332Z" fill="#3F89E4" stroke="white" stroke-width="2"/>
<circle cx="956.5" cy="336.5" r="5.5" fill="#3F89E4" stroke="white" stroke-width="2"/>
<path d="M867 266.734V315C867 317.761 869.239 320 872 320H880C880.418 320.314 880.937 320.5 881.5 320.5H957C959.761 320.5 962 322.739 962 325.5V330.25C962 331.769 963.231 333 964.75 333C966.269 333 967.5 331.769 967.5 330.25V320.5C967.5 317.739 965.261 315.5 962.5 315.5H953.283C953.101 315.453 952.911 315.429 952.714 315.429H877.469C874.708 315.429 872.469 313.19 872.469 310.429V266.734C872.469 265.224 871.245 264 869.734 264C868.224 264 867 265.224 867 266.734Z" fill="#3F89E4" stroke="white" stroke-width="2"/>
<rect x="855" y="235" width="53" height="33" rx="5" fill="#3F89E4" stroke="white" stroke-width="2"/>
<path d="M857.232 232.615C857.03 230.011 854.858 228 852.246 228H848.754C846.142 228 843.97 230.011 843.768 232.615L842.03 255.115C842.01 255.371 842.01 255.629 842.03 255.885L843.768 278.385C843.97 280.989 846.142 283 848.754 283H852.246C854.858 283 857.03 280.989 857.232 278.385L858.97 255.885C858.99 255.629 858.99 255.371 858.97 255.115L857.232 232.615Z" fill="#3F89E4" stroke="white" stroke-width="2"/>
<path d="M894 215.5C894 227.926 883.926 238 871.5 238C859.074 238 849 227.926 849 215.5C849 203.074 859.074 193 871.5 193C883.926 193 894 203.074 894 215.5Z" fill="#3F89E4" stroke="white" stroke-width="2"/>
<path d="M891 215.5C891 226.27 882.27 235 871.5 235C860.73 235 852 226.27 852 215.5C852 204.73 860.73 196 871.5 196C882.27 196 891 204.73 891 215.5Z" fill="#3F89E4" stroke="white"/>
<path d="M889 215.5C889 225.165 881.165 233 871.5 233C861.835 233 854 225.165 854 215.5C854 205.835 861.835 198 871.5 198C881.165 198 889 205.835 889 215.5Z" fill="#3F89E4" stroke="white"/>
<path d="M887 215.5C887 224.06 880.06 231 871.5 231C862.94 231 856 224.06 856 215.5C856 206.94 862.94 200 871.5 200C880.06 200 887 206.94 887 215.5Z" fill="#3F89E4" stroke="white"/>
<path d="M885 215.5C885 222.956 878.956 229 871.5 229C864.044 229 858 222.956 858 215.5C858 208.044 864.044 202 871.5 202C878.956 202 885 208.044 885 215.5Z" fill="#3F89E4" stroke="white"/>
<path d="M883 215.5C883 221.851 877.851 227 871.5 227C865.149 227 860 221.851 860 215.5C860 209.149 865.149 204 871.5 204C877.851 204 883 209.149 883 215.5Z" fill="#3F89E4" stroke="white"/>
<path d="M881.906 116.903C881.959 115.285 883.286 114 884.905 114H921.095C922.714 114 924.041 115.285 924.094 116.903L927.9 234.903C927.955 236.597 926.596 238 924.902 238H881.098C879.404 238 878.045 236.597 878.1 234.903L881.906 116.903Z" fill="#3F89E4" stroke="white" stroke-width="2"/>
<path d="M889.202 140.308C889.36 141.838 890.649 143 892.186 143H912.814C914.351 143 915.64 141.838 915.798 140.308L917.658 122.308C917.841 120.539 916.453 119 914.674 119H890.326C888.547 119 887.159 120.539 887.342 122.308L889.202 140.308Z" fill="#3F89E4" stroke="white" stroke-width="2"/>
<path d="M871.537 284.291L847.327 268.863C846.703 268.465 845.878 268.86 845.796 269.596L845.083 276.035C845.034 276.477 845.282 276.898 845.693 277.068L870.616 287.425C871.275 287.699 872 287.215 872 286.502V285.134C872 284.792 871.826 284.474 871.537 284.291Z" fill="#3F89E4" stroke="white" stroke-width="2"/>
<path d="M871.349 235.565L847.173 244.554C846.563 244.78 845.903 244.374 845.831 243.727L845.099 237.174C845.042 236.67 845.372 236.204 845.866 236.089L870.773 230.286C871.4 230.14 872 230.616 872 231.26V234.628C872 235.045 871.74 235.419 871.349 235.565Z" fill="#3F89E4" stroke="white" stroke-width="2"/>
<path d="M857.232 232.615C857.03 230.011 854.858 228 852.246 228H848.754C846.142 228 843.97 230.011 843.768 232.615L842.03 255.115C842.01 255.371 842.01 255.629 842.03 255.885L843.768 278.385C843.97 280.989 846.142 283 848.754 283H852.246C854.858 283 857.03 280.989 857.232 278.385L858.97 255.885C858.99 255.629 858.99 255.371 858.97 255.115L857.232 232.615Z" fill="#3F89E4" stroke="white" stroke-width="2"/>
<path fill-rule="evenodd" clip-rule="evenodd" d="M897.042 228.027C900.795 227.993 903.246 231.952 901.542 235.296L890.993 256.002C890.298 257.366 890.267 258.974 890.908 260.365L900.376 280.907C901.903 284.22 899.483 288 895.835 288H869C866.239 288 864 285.761 864 283V233.28C864 230.536 866.211 228.305 868.955 228.28L897.042 228.027ZM876.283 245.072C874.075 245.03 872.123 246.496 871.548 248.628L869.391 256.631C869.136 257.577 869.164 258.576 869.473 259.506L872.267 267.93C872.875 269.763 874.589 271 876.52 271C878.994 271 881 268.994 881 266.52V249.879C881 247.259 878.902 245.122 876.283 245.072Z" fill="#3F89E4"/>
<path d="M901.542 235.296L902.433 235.75V235.75L901.542 235.296ZM897.042 228.027L897.051 229.027L897.042 228.027ZM890.993 256.002L890.102 255.548L890.993 256.002ZM890.908 260.365L891.816 259.946L890.908 260.365ZM900.376 280.907L899.468 281.325L900.376 280.907ZM868.955 228.28L868.964 229.28L868.955 228.28ZM871.548 248.628L870.583 248.368V248.368L871.548 248.628ZM876.283 245.072L876.264 246.071L876.283 245.072ZM869.391 256.631L870.356 256.891L869.391 256.631ZM869.473 259.506L870.422 259.191L869.473 259.506ZM872.267 267.93L871.318 268.245L872.267 267.93ZM902.433 235.75C904.478 231.737 901.537 226.986 897.033 227.027L897.051 229.027C900.054 228.999 902.014 232.167 900.651 234.842L902.433 235.75ZM891.884 256.456L902.433 235.75L900.651 234.842L890.102 255.548L891.884 256.456ZM891.816 259.946C891.303 258.833 891.328 257.547 891.884 256.456L890.102 255.548C889.268 257.185 889.23 259.114 889.999 260.783L891.816 259.946ZM901.284 280.488L891.816 259.946L889.999 260.783L899.468 281.325L901.284 280.488ZM895.835 289C900.213 289 903.117 284.464 901.284 280.488L899.468 281.325C900.689 283.976 898.753 287 895.835 287V289ZM869 289H895.835V287H869V289ZM863 283C863 286.313 865.686 289 869 289V287C866.791 287 865 285.209 865 283H863ZM863 233.28V283H865V233.28H863ZM868.946 227.28C865.653 227.31 863 229.988 863 233.28H865C865 231.085 866.769 229.3 868.964 229.28L868.946 227.28ZM897.033 227.027L868.946 227.28L868.964 229.28L897.051 229.027L897.033 227.027ZM872.514 248.888C872.969 247.2 874.515 246.038 876.264 246.071L876.302 244.072C873.635 244.021 871.277 245.792 870.583 248.368L872.514 248.888ZM870.356 256.891L872.514 248.888L870.583 248.368L868.425 256.37L870.356 256.891ZM870.422 259.191C870.175 258.448 870.152 257.648 870.356 256.891L868.425 256.37C868.119 257.505 868.154 258.705 868.524 259.821L870.422 259.191ZM873.217 267.616L870.422 259.191L868.524 259.821L871.318 268.245L873.217 267.616ZM876.52 270C875.02 270 873.689 269.039 873.217 267.616L871.318 268.245C872.062 270.487 874.158 272 876.52 272V270ZM880 266.52C880 268.442 878.442 270 876.52 270V272C879.546 272 882 269.546 882 266.52H880ZM880 249.879V266.52H882V249.879H880ZM876.264 246.071C878.339 246.111 880 247.804 880 249.879H882C882 246.715 879.466 244.132 876.302 244.072L876.264 246.071Z" fill="white"/>
<ellipse cx="943" cy="324.5" rx="27" ry="26.5" fill="#3F89E4" stroke="white" stroke-width="2"/>
<circle cx="946.5" cy="336.5" r="26.5" fill="#3F89E4" stroke="white" stroke-width="2"/>
<path d="M898 360V234C898 232.343 899.343 231 901 231H919.224C919.822 231 920.405 231.178 920.901 231.512L957.676 256.288C958.504 256.845 959 257.778 959 258.776V360C959 361.657 957.657 363 956 363H901C899.343 363 898 361.657 898 360Z" fill="#3F89E4" stroke="white" stroke-width="2"/>
</svg>
